<?xml version="1.0" standalone="no"?>
<!DOCTYPE svg PUBLIC "-//W3C//DTD SVG 20010904//EN"
 "http://www.w3.org/TR/2001/REC-SVG-20010904/DTD/svg10.dtd">
<svg version="1.0" xmlns="http://www.w3.org/2000/svg"
 width="100.000000pt" height="100.000000pt" viewBox="0 0 100.000000 100.000000"
 preserveAspectRatio="xMidYMid meet">
<metadata>
Created by potrace 1.14, written by Peter Selinger 2001-2017
</metadata>
<g transform="translate(0.000000,100.000000) scale(0.100000,-0.100000)"
fill="#000000" stroke="none">
<path d="M61 944 c-20 -15 -23 -23 -19 -66 3 -29 20 -79 41 -121 l37 -72 -16
-45 c-82 -231 57 -492 300 -564 212 -63 458 67 531 280 35 104 28 239 -17 328
l-20 38 28 61 c74 165 22 216 -144 142 l-62 -28 -73 22 c-109 32 -225 24 -310
-21 -26 -13 -33 -12 -97 19 -86 42 -146 51 -179 27z m94 -35 c22 -6 55 -20 73
-31 l33 -20 -39 -37 c-21 -20 -47 -49 -58 -64 l-20 -29 -28 57 c-30 62 -40
100 -32 122 6 16 19 16 71 2z m761 -4 c13 -34 -90 -245 -119 -245 -44 0 -142
100 -135 137 2 10 36 36 78 61 105 60 165 76 176 47z m-274 -25 l28 -13 -26
-24 c-22 -20 -25 -30 -21 -60 11 -66 95 -149 161 -160 30 -5 39 -1 64 26 l29
32 18 -48 c52 -136 13 -305 -95 -413 -131 -132 -318 -155 -486 -59 -67 38
-119 98 -157 179 -26 56 -30 77 -31 155 -1 66 4 103 18 139 48 126 139 210
270 251 50 16 191 12 228 -5z"/>
</g>
</svg>
